<?xml version="1.0" encoding="utf-8"?>
<!-- Generator: Adobe Illustrator 25.2.0, SVG Export Plug-In . SVG Version: 6.00 Build 0)  -->
<svg version="1.1" id="Layer_1" xmlns="http://www.w3.org/2000/svg" xmlns:xlink="http://www.w3.org/1999/xlink" x="0px" y="0px"
	 viewBox="0 0 448 512" style="enable-background:new 0 0 448 512;" xml:space="preserve">
<g>
	<g>
		<g>
			<path d="M161.9,511.3c-15.6,0-31.3-2.4-46.7-7.3C63.1,487.3,24.6,445.2,9.6,388.5c-16.9-63.8-1.4-121.1,44.9-165.8
				c26.1-25.2,60.4-40.2,105-46.1c5.5-0.7,11-1.1,16.5-1.4l7.7-0.5l11.3,3.1l0.8,8.6v89.8l-17.8,4.3c-7.4,1.8-14.8,3.5-22.2,5.6
				c-6.4,1.9-13.1,4.4-19.9,7.6c-35.9,16.6-37.5,49.5-27,74.9c7.1,17.2,22.8,30.6,42,35.7c18.4,5,36.8,1.7,50.5-8.7
				c12.9-9.9,20.9-24.2,24.3-43.8c1.9-11.3,2.9-23.7,2.9-37c0-74.1-0.1-148.1-0.3-222.2l-0.2-79.2l1.6-12.3l9.9-1.1h90.1l1.3,9.6
				c9,66.6,42,100,103.9,105.2l10.2,0.8v98l-9.9,1.1c-38.4,4.1-72.1-8.4-102.9-24.8c0,11.8,0.1,23.6,0.1,35.4
				c0.2,34.4,0.4,69.9-0.7,104.9c-1.9,59.5-24,107.3-65.9,142C234.8,497.9,198.6,511.3,161.9,511.3z M173.6,197.6
				c-3.8,0.3-7.5,0.5-11.2,1c-40.2,5.3-69.6,18-92.5,40C29.2,278,16.1,326.5,31.1,382.8c13,49.2,46.2,85.6,91,99.9
				c44.1,14.1,91.4,4.1,129.6-27.6c36.7-30.5,56.2-72.7,57.9-125.6c1.1-34.6,0.9-69.9,0.7-104.1c-0.1-15.2-0.2-30.4-0.1-45.6v-28.3
				l16.7,9.8c33.6,19.7,62.9,32.8,96,31.9v-57.4C360,127.2,322.3,89.1,310.5,22.2h-59.8l-0.1,70.3c0.2,74.1,0.3,148.2,0.3,222.3
				c0,14.6-1.1,28.3-3.3,40.8c-4.3,24.9-15.3,44.3-32.6,57.6c-19.2,14.7-44.7,19.3-69.8,12.6c-25.8-6.9-47-25.1-56.8-48.7
				c-14.9-35.9-8.8-81.8,38.2-103.5c7.8-3.6,15.6-6.6,23-8.7c7.7-2.2,15.5-4.1,23.2-5.9l0.7-0.2V197.6z"/>
		</g>
	</g>
</g>
</svg>
